<svg width="130" height="124" viewBox="0 0 130 124" fill="none" xmlns="http://www.w3.org/2000/svg">
<rect x="2.03971" y="2.03824" width="125.775" height="119.322" fill="#8AFF41" stroke="#7C7C7C" stroke-width="4.07683"/>
<path d="M98.0028 43.274C90.8648 43.2799 83.8925 43.3213 76.9211 43.2642C75.3746 43.2515 74.7359 43.6699 74.8131 45.317C74.9346 47.912 74.9127 50.5191 74.8226 53.1166C74.7734 54.5342 75.341 54.9271 76.6675 54.9124C81.4256 54.8599 86.1853 54.9331 90.9429 54.8614C92.5179 54.8377 93.083 55.3672 93.0559 56.9708C92.974 61.8388 93.0294 66.709 93.0193 71.5783C93.0138 74.1863 93.0026 74.1863 90.3087 74.1889C84.2774 74.1948 78.2456 74.243 72.215 74.1777C70.6432 74.1607 70.1105 74.6355 70.1267 76.251C70.2012 83.6649 70.1689 91.08 70.1426 98.4945C70.1399 99.2539 70.5289 100.373 69.3726 100.578C68.0327 100.815 66.5486 101.088 65.3318 100.322C64.672 99.9065 64.9694 98.8593 65.037 98.1188C65.1739 96.6197 64.6542 96.0479 63.0972 96.0909C60.4667 96.1634 60.3824 96.0789 60.464 93.4516C60.5113 91.9253 59.9965 91.4059 58.4767 91.4437C56.0551 91.5039 56.0531 91.4235 56.0367 88.9741C56.0224 86.8387 56.0224 86.8387 53.7743 86.8212C51.4063 86.8028 51.4063 86.8028 51.3881 84.427C51.3708 82.166 51.3709 82.1607 49.0795 82.1264C47.8992 82.1087 46.7529 82.2639 46.7482 80.4264C46.74 77.1872 46.3924 76.9819 42.8269 77.5478C42.8269 78.5937 42.8212 79.6767 42.8287 80.7596C42.8348 81.633 42.4486 82.1105 41.5396 82.1005C41.1524 82.0962 40.7651 82.1125 40.3778 82.1127C37.516 82.1141 37.516 82.1136 37.5156 79.3208C37.5153 77.0151 37.6755 76.8656 40.1176 76.8933C42.5271 76.9206 42.5276 76.9206 42.5386 74.5404C42.5407 74.0977 42.5387 73.655 42.5376 73.2124C42.5293 69.9329 42.5313 69.9088 39.2187 69.6182C38.3342 69.5407 37.9629 69.1758 37.8626 68.3054C37.4502 64.7242 37.6826 64.4427 41.2738 64.4398C42.7124 64.4387 44.1518 64.4066 45.5895 64.443C46.6134 64.4689 47.1692 64.1049 47.111 63.009C47.0817 62.4575 47.0874 61.9012 47.1213 61.3498C47.1845 60.3219 46.6701 59.9526 45.7096 60.0283C45.4348 60.05 45.1565 60.0332 44.8799 60.0273C41.1718 59.9483 41.4659 60.7246 41.4286 56.3832C41.4184 55.2038 41.9298 54.8257 43.0268 54.8452C45.0735 54.8815 47.1213 54.8553 49.1686 54.8523C51.3199 54.8492 51.3365 54.8479 51.3554 52.6247C51.378 49.9688 51.4236 47.3112 51.3499 44.6573C51.3125 43.3098 51.7462 42.7965 53.1406 42.8281C56.5142 42.9046 59.8913 42.8117 63.2657 42.8685C64.5134 42.8895 65.1544 42.5452 65.0274 41.1876C64.9163 39.999 65.482 38.4574 63.4017 38.4606C63.3465 38.4607 63.2912 38.4551 63.236 38.4517C60.5952 38.2904 60.5292 38.2908 60.5115 35.6317C60.5017 34.1628 59.909 33.6698 58.5033 33.7724C57.2925 33.8607 56.0685 33.751 54.8532 33.7992C53.7977 33.8411 53.2916 33.4278 53.386 32.3504C53.4004 32.1858 53.3842 32.0186 53.3839 31.8527C53.3789 28.8864 53.6513 29.0335 50.5911 29.1227C49.1114 29.1658 48.6682 28.6025 48.7078 27.1805C48.8102 23.5062 48.4114 23.926 51.8727 23.9236C68.694 23.9121 85.5154 23.9185 102.337 23.9217C104.635 23.9222 104.674 23.9454 104.682 26.2246C104.7 31.2598 104.643 36.296 104.722 41.3301C104.747 42.9139 104.101 43.3727 102.65 43.2967C101.16 43.2187 99.6628 43.276 98.0028 43.274Z" fill="black"/>
<path d="M28.8921 66.9072C29.0403 65.4575 28.5752 64.8061 27.1552 64.8422C26.2688 64.8648 24.9747 65.2913 24.5771 64.3345C24.0586 63.0864 24.4728 61.6246 24.5504 60.2572C24.5676 59.9531 24.8771 59.8443 25.1704 59.823C25.3905 59.807 25.6112 59.7989 25.8317 59.7893C29.2304 59.6412 29.2653 59.6406 29.3319 62.973C29.3528 64.0176 29.6685 64.4239 30.7609 64.4603C34.2759 64.5774 34.3625 64.7519 34.0089 68.405C33.928 69.2415 33.5855 69.604 32.7781 69.5962C32.3365 69.5919 31.8946 69.607 31.4529 69.607C28.8939 69.6068 28.8939 69.6062 28.8921 66.9072Z" fill="black"/>
<path d="M44.8837 25.4312C44.8881 25.6409 44.8888 25.6962 44.889 25.7514C44.9003 29.2152 44.3041 29.6885 40.8031 29.0878C40.141 28.9742 39.8155 28.6744 39.7993 28.018C39.7952 27.8524 39.7895 27.6868 39.7826 27.5213C39.6274 23.8306 39.7434 23.7416 43.4363 23.9261C44.3873 23.9736 44.9013 24.2875 44.8837 25.4312Z" fill="black"/>
<path d="M34.9633 60.0235C33.993 60.0519 33.5734 59.6644 33.5574 58.8474C33.5509 58.517 33.5428 58.1866 33.541 57.8561C33.5255 54.863 33.5275 54.9299 36.576 54.8562C38.1065 54.8192 38.9019 55.2362 38.668 56.8876C38.6221 57.2117 38.6624 57.5478 38.6607 57.8784C38.6498 60.0201 38.6496 60.0206 36.4424 60.0308C36.0017 60.0328 35.5609 60.0291 34.9633 60.0235Z" fill="black"/>
</svg>
