<svg width="130" height="124" viewBox="0 0 130 124" fill="none" xmlns="http://www.w3.org/2000/svg">
<rect x="2.03971" y="2.03824" width="125.775" height="119.322" fill="#8AFF41" stroke="#7C7C7C" stroke-width="4.07683"/>
<path d="M63.7198 70.1138C63.7164 72.4719 63.678 74.6581 63.7228 76.8425C63.7474 78.0383 63.2369 78.4699 62.073 78.465C56.3794 78.4406 50.6855 78.4373 44.992 78.4781C43.5965 78.4881 43.1088 77.8303 43.2642 76.5669C43.4617 74.9612 42.6841 74.2996 41.1875 74.4245C39.7275 74.5464 39.1648 73.905 39.3748 72.5221C39.63 70.8411 38.7891 70.3649 37.2939 70.5372C35.8765 70.7005 35.4434 70.1376 35.4874 68.6623C35.6107 64.5251 35.5755 60.3814 35.5125 56.2415C35.4929 54.9495 35.8017 54.2342 37.2198 54.4543C39.0404 54.7369 39.6027 53.8566 39.369 52.1853C39.1815 50.8441 39.7878 50.3631 41.1329 50.3711C47.9766 50.4117 54.821 50.4185 61.6645 50.3606C63.2677 50.347 63.7541 50.9849 63.7394 52.5149C63.6838 58.3232 63.7185 64.1323 63.7198 70.1138Z" fill="black"/>
<path d="M46.0961 48.7436C43.4561 48.7091 43.4017 48.7109 43.325 46.3596C43.2834 45.0847 42.7413 44.5505 41.5202 44.7081C39.9195 44.9147 39.104 44.3637 39.3612 42.6411C39.5739 41.2165 38.9458 40.5932 37.5185 40.7813C35.8013 41.0077 35.3883 40.2544 35.4842 38.5903C35.6392 35.9023 35.539 33.195 35.4486 30.4992C35.4024 29.1198 35.8324 28.3983 37.2969 28.5873C38.7985 28.7811 39.6243 28.3041 39.3803 26.6231C39.1781 25.2309 39.7825 24.5454 41.2213 24.7521C42.8092 24.9802 43.4744 24.3087 43.2832 22.7309C43.0871 21.1144 43.8844 20.6648 45.4088 20.682C50.8134 20.7431 56.2197 20.7388 61.6244 20.6753C63.1724 20.6571 63.7618 21.1713 63.751 22.7646C63.6973 30.7573 63.6904 38.7509 63.7639 46.7433C63.7792 48.4071 63.1164 48.791 61.6156 48.7727C56.4985 48.7103 51.3801 48.7457 46.0961 48.7436Z" fill="black"/>
<path d="M65.6145 42.8313C65.6139 36.0489 65.6619 29.4384 65.5787 22.8296C65.5577 21.1567 66.1038 20.6461 67.7459 20.6734C72.8025 20.7575 77.8613 20.6966 82.9193 20.7071C85.3156 20.712 85.7327 21.0546 85.8747 23.4132C85.9401 24.5003 86.4438 24.7369 87.4038 24.7645C89.8628 24.8352 89.9159 24.8666 89.9959 27.2242C90.0326 28.3078 90.5007 28.5678 91.4788 28.5995C93.8038 28.6746 93.8083 28.7137 93.8129 31.0579C93.8182 33.7593 93.7757 36.4614 93.8275 39.1618C93.8502 40.3493 93.3872 40.9137 92.2137 40.7751C90.4786 40.5701 89.7433 41.2719 90.0207 43.0185C90.2609 44.5312 89.4019 44.9829 88.1057 44.8491C86.3847 44.6715 85.6328 45.3415 85.8811 47.0968C86.0655 48.4004 85.3806 48.7785 84.1604 48.7693C78.5854 48.7268 73.0098 48.7104 67.435 48.7556C65.9804 48.7673 65.5049 48.1783 65.598 46.7961C65.6828 45.5374 65.6151 44.2684 65.6145 42.8313Z" fill="black"/>
<path d="M39.0685 100.587C37.9016 99.9212 36.2407 100.966 35.6632 99.7475C35.1967 98.7633 35.5503 97.3879 35.5493 96.1861C35.5476 94.1166 35.6051 92.0454 35.536 89.9783C35.4942 88.7276 35.923 88.1066 37.2085 88.2937C39.0043 88.555 39.6317 87.7357 39.3722 86.0411C39.1307 84.4639 39.9159 83.9685 41.3574 84.1538C42.7067 84.3271 43.4724 83.8466 43.3093 82.3663C43.1377 80.8081 43.7809 80.282 45.3783 80.3076C50.7805 80.3944 56.1858 80.3844 61.5883 80.3008C63.1908 80.276 63.8217 80.6927 63.7902 82.4098C63.6932 87.6967 63.7031 92.9874 63.7864 98.2748C63.8116 99.8701 63.2852 100.52 61.7131 100.296C60.2426 100.087 59.6973 100.82 59.8743 102.184C60.0975 103.904 59.4357 104.682 57.6663 104.42C56.2529 104.21 55.604 104.815 55.8185 106.251C56.0873 108.052 55.2338 108.533 53.551 108.466C50.796 108.354 48.0326 108.387 45.2746 108.446C43.8192 108.477 43.0744 107.97 43.2735 106.445C43.478 104.879 42.8486 104.177 41.2433 104.402C39.8286 104.6 39.2295 103.979 39.355 102.546C39.4087 101.932 39.4863 101.279 39.0685 100.587Z" fill="black"/>
<path d="M86.9035 74.4904C85.4187 74.7382 85.909 75.8422 85.9394 76.5748C85.9984 77.9982 85.4738 78.5147 84.0462 78.4771C81.1748 78.4013 78.2983 78.4028 75.427 78.4824C74.0245 78.5212 73.3524 78.0657 73.5559 76.6179C73.792 74.9384 72.9881 74.2524 71.3997 74.4696C69.8891 74.6761 69.2079 74.1209 69.4222 72.5901C69.6413 71.0248 69.0205 70.3259 67.4161 70.533C66.1049 70.7022 65.5523 70.1533 65.5875 68.7782C65.661 65.9065 65.6655 63.0303 65.59 60.1588C65.5541 58.7962 66.0856 58.2098 67.3959 58.3631C68.9874 58.5493 69.6447 57.8946 69.4222 56.3102C69.2252 54.9074 69.8274 54.2482 71.2588 54.4385C72.943 54.6625 73.7894 54.0311 73.5536 52.2481C73.3635 50.8106 74.0273 50.3279 75.4309 50.3631C78.3026 50.4351 81.1778 50.4159 84.0506 50.3719C85.3137 50.3525 86.0881 50.7146 85.8818 52.1294C85.6219 53.9119 86.2851 54.7361 88.1479 54.4544C89.5452 54.2431 90.2129 54.8395 90.0089 56.2823C89.792 57.8174 90.3675 58.5684 91.9926 58.3724C93.4625 58.1951 93.8616 58.9616 93.8253 60.3248C93.7518 63.0814 93.7294 65.8439 93.8285 68.5989C93.8836 70.1277 93.3354 70.6865 91.8373 70.558C91.0132 70.4873 90.1084 70.3684 89.9976 71.7241C89.778 74.4133 89.7195 74.4085 86.9035 74.4904Z" fill="black"/>
</svg>
