<svg width="130" height="124" viewBox="0 0 130 124" fill="none" xmlns="http://www.w3.org/2000/svg">
<rect x="2.03971" y="2.03824" width="125.775" height="119.322" fill="#8AFF41" stroke="#7C7C7C" stroke-width="4.07683"/>
<path d="M30.584 12.3747C55.6917 12.3751 80.617 12.3754 105.542 12.3762C108.353 12.3763 108.353 12.3778 108.365 15.2401C108.377 18.1742 108.377 18.1452 111.007 18.178C113.614 18.2105 114.006 17.4897 113.985 21.4613C113.905 36.6566 114.049 51.8531 114.084 67.0492C114.109 78.049 114.092 89.0489 114.094 100.049C114.094 100.474 114.098 100.9 114.089 101.325C114.001 105.367 114.002 105.405 109.935 105.536C108.761 105.574 108.363 105.993 108.312 107.152C108.124 111.4 108.09 111.398 103.843 111.397C77.2159 111.397 50.5884 111.396 23.9609 111.395C20.7496 111.395 20.7498 111.395 20.7512 108.259C20.7513 107.894 20.7316 107.529 20.7492 107.165C20.8045 106.024 20.3145 105.572 19.1323 105.528C15.1384 105.379 15.1406 105.339 15.1406 101.386C15.1409 74.6368 15.1408 47.8878 15.141 21.1387C15.141 18.215 15.1416 18.215 17.9976 18.2033C20.6797 18.1923 20.6797 18.1923 20.7026 15.4858C20.7289 12.3756 20.7289 12.3753 23.8364 12.3747C26.0248 12.3743 28.2132 12.3747 30.584 12.3747ZM53.3873 105.026C70.7781 105.026 88.169 105.014 105.56 105.048C107.061 105.051 107.859 104.878 107.855 103.009C107.796 75.5847 107.803 48.1606 107.85 20.7367C107.853 19.0908 107.295 18.6956 105.739 18.6978C78.3155 18.7363 50.8914 18.7378 23.4674 18.6927C21.7651 18.6899 21.1649 19.108 21.1686 20.9202C21.2253 48.1617 21.21 75.4033 21.2128 102.645C21.2131 105.029 21.217 105.038 23.6526 105.038C33.4426 105.037 43.2325 105.03 53.3873 105.026Z" fill="black"/>
<path d="M99.8614 94.5695C98.2144 94.461 97.1926 94.77 97.4305 96.6352C97.5895 97.881 96.6505 97.9412 95.7403 97.9157C94.7476 97.8879 93.7636 97.8074 93.564 99.2022C93.4534 99.9749 92.7621 100.018 92.1347 100.018C87.3929 100.018 82.651 100.017 77.9092 100.002C77.373 100 76.6038 100.028 76.5524 99.3737C76.4195 97.6796 75.2512 97.8932 74.1696 97.9248C73.155 97.9545 72.3249 97.8387 72.3828 96.5138C72.3921 96.3007 72.1885 95.883 72.1158 95.8901C70.5371 96.0452 69.8202 94.2684 68.3817 94.2203C67.2517 94.1826 66.9219 93.6209 66.9429 92.5965C66.9647 91.5341 67.0572 90.57 65.8538 89.7759C65.0101 89.2192 65.4061 87.8313 65.5991 86.8468C65.7627 86.0117 66.6422 86.1445 67.2813 86.1328C68.623 86.1083 70.055 86.3298 70.0053 84.2511C69.994 83.7803 70.5289 83.5886 70.9659 83.5791C72.3016 83.5498 73.6391 83.5362 74.9743 83.5726C76.0586 83.6021 76.1902 84.4217 76.1908 85.2536C76.1915 86.1828 76.471 86.8105 77.5413 86.7309C78.8212 86.6359 79.3139 87.2799 79.2106 88.4901C79.1186 89.5684 79.5739 90.0278 80.6885 90.0051C83.0585 89.957 85.4301 89.997 87.801 89.9898C88.1012 89.9889 88.4711 90.0218 88.6895 89.8688C89.7782 89.1065 89.013 87.2024 91.0363 86.661C91.9621 86.4132 91.387 83.9928 91.3165 82.566C91.2762 81.7528 90.445 81.8433 89.8578 81.8751C88.7039 81.9374 87.9422 81.6501 88.0863 80.2825C88.1941 79.2594 87.672 78.8423 86.6824 78.8849C86.1366 78.9085 85.5869 78.8517 85.0416 78.8803C83.6775 78.9517 82.4692 78.8545 82.8177 77.0678C81.905 76.5578 81.0956 76.828 80.3249 76.7396C79.8577 76.686 79.1729 76.8074 79.111 76.2039C78.9522 74.6568 77.8553 74.8267 76.8341 74.8139C75.8889 74.802 74.9467 74.8381 74.9197 73.4849C74.9117 73.0846 74.6209 72.7483 74.2213 72.7827C72.7237 72.9119 72.6526 71.7968 72.5017 70.8266C70.09 70.2668 68.4192 68.1069 68.4156 65.6196C68.4111 62.5192 68.4151 59.4187 68.4126 56.3182C68.4119 55.4654 68.3139 54.6009 69.391 54.217C69.952 54.017 69.8703 53.4248 69.9035 52.9514C69.9433 52.3862 70.2112 51.9431 70.7741 51.9892C72.2231 52.1079 72.5527 51.3652 72.4407 50.1143C72.3461 49.0566 72.9997 48.7677 73.9318 48.7781C75.124 48.7914 76.4401 49.0628 76.5555 47.1649C76.5966 46.489 77.4038 46.6037 77.9255 46.6017C82.1811 46.5858 86.4366 46.5939 90.6922 46.5855C91.5553 46.5838 92.2601 46.7113 92.3536 47.7984C92.4568 48.9999 93.4261 48.7872 94.1661 48.7376C95.4472 48.6517 96.1559 49.0429 96.0245 50.4543C95.9786 50.9467 96.0723 51.6422 96.6402 51.5979C98.1925 51.4768 98.7222 52.4043 99.3996 53.5681C100.436 55.3496 99.8936 55.6202 98.4291 56.8307C97.0834 57.9431 95.1317 58.4025 94.3717 59.5194C93.4534 60.8686 92.6093 60.8785 91.4423 60.8982C90.6558 60.9114 89.9768 60.7293 89.9265 59.7359C89.8967 59.147 89.527 58.884 88.9702 58.8463C88.3789 58.8062 88.0474 58.4652 88.0944 57.9029C88.2228 56.3692 87.2948 56.2397 86.132 56.3179C85.4662 56.3627 84.7661 56.2049 84.1325 56.3546C82.9119 56.643 81.634 55.7053 80.4147 57.5662C79.5718 58.8526 79.1291 59.8668 79.1067 61.255C79.096 61.9211 79.1048 62.5876 79.1048 63.3678C80.08 63.6093 81.3203 63.5776 81.1564 65.2058C81.0859 65.9058 81.8515 65.9139 82.4041 65.9201C83.3767 65.9311 84.3496 65.9384 85.3221 65.9269C86.1802 65.9168 86.927 66.0091 86.9383 67.1392C86.9405 67.3648 87.1262 67.7915 87.1583 67.785C89.1799 67.375 89.9963 69.8424 91.8882 69.7488C92.7405 69.7067 93.6098 69.7023 93.8051 70.9093C93.9939 72.0763 94.9988 71.7208 95.7213 71.7348C96.7204 71.7542 97.5759 71.8084 97.4842 73.1578C97.4246 74.0337 97.9512 74.3724 98.7478 74.2876C100.235 74.1291 100.473 74.9811 100.404 76.1857C100.344 77.2146 100.197 78.3106 101.781 78.3966C102.276 78.4234 102.306 79.0125 102.308 79.437C102.321 82.6575 102.322 85.878 102.319 89.0985C102.318 89.3381 102.317 89.7547 102.212 89.7912C100.036 90.55 101.002 92.4946 100.623 93.9231C100.538 94.241 100.333 94.4438 99.8614 94.5695Z" fill="black"/>
<path d="M49.4898 100.028C45.4268 100.027 41.5362 100.018 37.6457 100.029C36.6735 100.032 35.8558 100.003 35.7347 98.6843C35.6341 97.5891 34.6262 97.9179 33.9783 97.9482C32.6159 98.0119 31.6971 97.7553 31.8991 96.0908C32.0344 94.9758 31.404 94.5323 30.3607 94.6218C28.9554 94.7424 28.3558 94.2369 28.5438 92.7327C28.6749 91.6829 28.628 90.7567 27.2873 90.0724C26.1673 89.5007 27.0156 87.9937 26.8301 86.9425C27.968 86.4091 29.0092 86.4553 30.0218 86.5713C31.1271 86.6979 31.665 86.3367 31.5532 85.1978C31.4233 83.8748 32.1454 83.4897 33.3123 83.5238C34.1625 83.5487 35.0171 83.5679 35.8646 83.5125C37.3276 83.4169 38.2446 83.819 38.0314 85.5273C37.9468 86.2049 38.1982 86.753 38.9905 86.7902C40.1534 86.8448 40.6064 87.4746 40.5149 88.5781C40.4187 89.7398 41.0533 90.0356 42.0825 90.0014C43.4184 89.957 44.757 90.004 46.0941 89.9851C46.4509 89.98 47.1201 89.8465 47.1179 89.8246C46.9045 87.6851 49.5254 87.0152 49.5078 84.8362C49.4117 72.9222 49.4659 61.007 49.4735 49.0922C49.475 46.6031 49.4847 46.6001 52.0312 46.5931C54.0372 46.5876 56.0433 46.5843 58.0493 46.5917C60.3566 46.6002 60.4717 46.7132 60.4931 49.0955C60.5099 50.9798 60.4971 52.8644 60.4986 54.7489C60.5079 65.691 60.5232 76.6331 60.5188 87.5752C60.5183 88.7885 60.8643 90.1449 58.9175 90.4492C58.0602 90.5832 58.3816 91.6966 58.4027 92.3748C58.4454 93.7436 58.3083 94.803 56.5043 94.6509C55.4518 94.5621 55.3857 95.4116 55.4372 96.1667C55.5301 97.5279 54.9106 98.0381 53.5943 97.9319C52.7294 97.862 51.9209 97.8536 51.7339 99.0946C51.5542 100.287 50.4673 99.9544 49.4898 100.028Z" fill="black"/>
</svg>
