<svg width="130" height="124" viewBox="0 0 130 124" fill="none" xmlns="http://www.w3.org/2000/svg">
<path d="M38.686 74.0583C38.1164 74.6512 37.5185 74.6656 37.0222 74.2418C36.6577 73.9306 36.7147 73.3992 36.9254 72.9857C37.1715 72.5029 37.664 72.5028 38.109 72.6067C38.8379 72.7768 38.7777 73.3667 38.686 74.0583Z" fill="black"/>
<path d="M59.7867 57.701C58.7332 58.9126 58.1084 60.5726 56.1274 60.3142C55.3904 60.218 54.6686 60.2343 54.5414 59.2673C54.5285 59.1697 54.495 59.0145 54.433 58.9923C52.1769 58.183 53.1772 56.2577 53.0113 54.7598C52.9059 53.8079 52.9916 52.8349 52.9916 51.8216C53.8223 51.6082 54.5195 51.5404 54.7133 50.4376C54.8974 49.3904 56.0828 49.9367 56.8312 49.8557C57.4255 49.7913 58.1593 49.7451 58.2654 50.5939C58.3469 51.2449 58.571 51.5679 59.2536 51.704C59.9011 51.8332 59.7921 52.4934 59.7981 52.9823C59.8168 54.5112 59.8019 56.0405 59.7867 57.701Z" fill="black"/>
<rect x="2.03971" y="2.03824" width="125.775" height="119.322" fill="#8AFF41" stroke="#7C7C7C" stroke-width="4.07683"/>
<path d="M30.4403 59.4122C28.8097 59.4334 27.1791 59.452 25.5485 59.4771C24.8331 59.4881 24.3603 59.2421 24.3594 58.4363C24.3584 57.6432 24.6765 57.1851 25.5377 57.2012C26.5064 57.2193 27.4758 57.2097 28.4447 57.1982C29.3349 57.1877 30.3079 57.4283 30.4389 55.9902C30.5032 55.2844 31.3108 55.4235 31.8453 55.4183C34.0892 55.3965 36.3345 55.3614 38.577 55.4208C39.7772 55.4525 40.1705 55.0028 40.153 53.8095C40.0956 49.8832 40.1327 45.9555 40.134 42.0283C40.1342 41.2597 40.0372 40.4413 41.1294 40.2835C41.2593 40.2648 41.4847 40.0857 41.4716 40.019C41.1772 38.5161 42.9296 37.8303 42.8892 36.4338C42.8763 35.9848 43.0658 35.6329 43.5499 35.5397C44.79 35.301 44.6343 34.3929 44.2839 33.6602C43.3431 31.6932 43.4945 29.5061 44.0208 27.706C44.3612 26.5414 45.0809 25.4029 45.1185 24.0697C45.1198 24.0214 45.1439 23.9692 45.1701 23.9266C45.6241 23.187 50.109 23.3107 50.3394 24.1379C50.5906 25.0397 51.1338 25.0629 51.8228 25.0493C52.6636 25.0327 53.5304 24.9828 53.519 26.2155C53.5181 26.311 53.5705 26.4866 53.6134 26.4914C55.4349 26.698 56.3739 29.1039 58.5375 28.466C58.8277 28.3805 59.2466 28.4217 59.328 28.1092C59.7144 26.6255 60.8795 26.9173 61.9187 26.9159C66.0499 26.9105 70.1811 26.9108 74.3123 26.908C75.0859 26.9075 75.7626 26.8822 76.1373 27.8669C76.4654 28.729 78.533 28.7455 79.3395 27.976C79.8927 27.4481 80.4059 26.908 81.2428 26.8474C81.4659 26.8312 81.8563 26.6389 81.8639 26.5095C81.9646 24.8033 83.2025 25.0611 84.3008 25.0277C84.5324 25.0206 84.8425 24.9201 84.9718 24.7516C85.2844 24.3444 85.1317 23.5535 85.926 23.5486C87.2496 23.5404 88.579 23.5034 89.8949 23.6124C90.5528 23.6669 90.4528 24.3617 90.483 24.8562C90.5369 25.7396 90.2761 26.7054 91.4261 27.1989C91.7907 27.3554 91.737 27.9333 91.7029 28.3341C91.5418 30.225 92.2089 32.2019 91.0976 34.004C90.9636 34.2213 91.0081 34.8326 91.1073 34.8672C92.6108 35.3913 92.3189 37.2218 93.424 37.9903C93.8348 38.276 93.8722 38.6417 93.8757 39.0483C93.8811 39.6849 93.8886 40.254 94.7298 40.4191C95.5723 40.5845 95.3942 41.3408 95.3967 41.9207C95.414 45.8478 95.4632 49.7762 95.3839 53.7017C95.3561 55.0762 95.8319 55.4769 97.1496 55.425C99.3392 55.3387 101.535 55.4051 103.728 55.4096C104.482 55.4111 105.17 55.4724 105.237 56.4866C105.283 57.193 105.865 57.1877 106.382 57.1936C107.504 57.2063 108.626 57.2149 109.748 57.205C110.53 57.1982 110.998 57.455 111.009 58.3416C111.02 59.2466 110.529 59.4772 109.757 59.4744C108.584 59.47 107.411 59.4917 106.238 59.4862C105.55 59.4829 105.21 59.771 105.207 60.4912C105.205 61.2031 105.537 61.5239 106.22 61.5298C107.342 61.5396 108.464 61.545 109.586 61.5501C110.357 61.5536 111.003 61.6492 111.017 62.6805C111.031 63.7102 110.429 63.8309 109.629 63.8157C108.609 63.7963 107.588 63.7812 106.569 63.8178C105.627 63.8515 104.838 63.787 104.736 62.5649C104.688 61.9869 104.155 61.9124 103.68 61.9117C100.263 61.9061 96.8463 61.9103 93.4293 61.9123C92.8854 61.9126 92.4127 62.0172 92.2572 62.6516C92.2099 62.8449 92.1168 63.1677 92.008 63.1838C90.5704 63.3971 90.463 64.4939 90.3043 65.6041C90.208 66.2778 89.6274 66.2544 89.1099 66.2766C88.1268 66.3187 87.1927 66.2997 87.0396 67.709C86.9543 68.494 86.0717 68.2447 85.4958 68.3085C84.2827 68.443 82.7988 67.7941 82.1775 69.5877C82.0522 69.9494 81.4452 69.8509 81.0412 69.8556C79.8172 69.8697 78.5928 69.8574 77.3693 69.8862C76.8977 69.8973 76.2841 69.7549 76.2456 70.715C77.9441 70.7436 78.1296 71.9174 78.065 73.2719C78.0502 73.5825 78.1246 73.9527 78.5002 73.9755C80.0018 74.0663 79.7523 75.1652 79.7556 76.1066C79.7664 79.1667 79.7849 82.2271 79.7526 85.2869C79.7417 86.3198 79.9651 86.9847 81.187 86.8645C81.6297 86.8209 82.2378 86.7854 82.3477 87.3465C82.5896 88.5818 83.4828 88.442 84.3489 88.438C85.2669 88.4337 86.185 88.4426 87.103 88.4338C87.8908 88.4263 88.6488 88.3703 88.7411 89.5067C88.8044 90.287 89.5396 90.3212 90.0457 90.182C91.9493 89.6588 92.4751 91.5247 93.5837 92.2846C93.9653 92.5462 94.2081 93.1406 94.8677 93.409C95.7484 93.7673 95.3242 94.7521 95.3491 95.4657C95.3703 96.0723 95.599 96.8493 94.6914 97.1321C94.4535 97.2062 94.0464 97.289 94.0237 97.4205C93.6181 99.7784 91.7758 98.8755 90.424 99.005C89.5592 99.0878 88.6369 98.8834 88.6187 100.24C88.6104 100.851 87.9947 100.813 87.5447 100.821C86.5249 100.84 85.5047 100.836 84.4847 100.833C83.5225 100.83 82.5675 100.657 82.351 102.104C82.22 102.979 81.2694 102.675 80.6578 102.677C73.3135 102.698 65.9691 102.694 58.6247 102.695C57.4517 102.696 56.2786 102.696 55.1056 102.688C54.1103 102.681 52.9866 102.935 52.9031 101.343C52.8778 100.861 52.3264 100.848 51.9104 100.845C50.9414 100.838 49.9722 100.847 49.0034 100.829C47.9738 100.81 46.9773 101.044 46.4099 99.6116C46.0772 98.772 44.7508 99.08 43.8685 99.0834C42.7636 99.0876 41.633 99.3483 41.6262 97.6656C41.6257 97.5208 41.3935 97.2713 41.2426 97.249C39.8504 97.0437 40.1881 95.9721 40.1653 95.1097C40.1429 94.2637 40.0552 93.5326 41.2435 93.096C41.8974 92.8557 42.6921 91.8545 43.0158 91.2343C43.5741 90.1645 44.2381 90.2207 45.0823 90.2003C45.9345 90.1797 46.8722 90.3688 46.9339 89.0123C46.9604 88.4275 47.5829 88.458 48.0351 88.4509C49.1569 88.4332 50.2791 88.4385 51.4011 88.4379C52.1806 88.4375 52.8832 88.4838 53.0838 87.3796C53.2294 86.5779 54.0972 86.8648 54.6547 86.8762C55.6267 86.8958 56.0459 86.5303 56.0319 85.535C55.9636 80.667 56.6635 81.5517 52.2036 81.473C51.0818 81.4533 49.9594 81.4766 48.8375 81.464C47.8029 81.4523 46.9921 81.5515 46.3238 80.1784C45.9787 79.4693 44.8676 78.4503 43.9796 77.6957C43.0584 76.9128 41.2018 76.3015 41.6645 74.3493C41.7899 73.8201 41.5414 73.3613 40.8869 73.2445C40.6643 73.2048 40.2949 73.0019 40.2918 72.8666C40.2493 71.0488 38.9004 71.5057 37.8632 71.4434C36.2047 71.3438 36.912 70.0703 36.7923 69.2451C36.673 68.4221 36.7733 67.7121 37.9509 67.8051C38.7571 67.8687 39.5777 67.74 40.3924 67.7101C41.1975 67.6807 41.6028 68.0978 42.197 68.6845C42.9821 69.4597 43.5216 70.6946 44.7284 70.955C45.773 71.1804 45.7704 72.2815 46.4342 72.865C47.2089 73.5459 48.5823 73.9669 48.7204 75.3546C48.7608 75.7602 49.2087 75.8699 49.5766 75.8273C50.8004 75.6856 51.7637 75.9434 52.141 77.6089C52.7091 75.7598 54.0207 75.7047 55.4028 75.792C55.4945 75.7978 55.6721 75.728 55.674 75.6873C55.7295 74.4601 57.1597 74.1468 57.4136 73.0609C57.6744 71.946 57.6551 70.6293 59.2904 70.7489C59.2782 69.8077 58.7302 69.8968 58.2994 69.8865C57.127 69.8586 55.9536 69.8684 54.7806 69.8587C53.9668 69.852 53.1168 69.9627 52.8988 68.8089C52.8063 68.3193 52.2874 68.3367 51.8817 68.3272C51.117 68.3091 50.3516 68.3231 49.5869 68.3063C49.183 68.2975 48.5144 68.3084 48.5191 67.9311C48.5389 66.3164 47.1601 66.3836 46.254 65.9469C45.4349 65.552 45.1755 64.7779 44.6758 64.2182C43.8228 63.2625 43.209 61.7651 41.3244 61.863C37.8715 62.0422 34.4026 61.914 30.8058 61.914C30.9531 63.8844 29.7432 63.9337 28.3607 63.8309C27.3966 63.7592 26.4236 63.8004 25.4546 63.8056C24.7894 63.8092 24.3776 63.5536 24.3693 62.8346C24.3614 62.1411 24.5772 61.6121 25.3762 61.5874C26.3954 61.5558 27.4241 61.4636 28.4332 61.5596C29.8924 61.6984 30.5328 61.1369 30.5605 59.5263C33.9415 59.3548 37.1486 59.3416 40.3556 59.3172C40.9091 59.313 41.5749 59.3793 41.6108 58.5685C41.6516 57.6467 40.9292 57.7035 40.3208 57.7001C37.8262 57.6864 35.3264 57.7822 32.8387 57.6479C31.4137 57.5709 30.6327 57.9951 30.4403 59.4122ZM78.719 65.814C79.2285 65.8135 79.7423 65.8543 80.2464 65.8021C80.8948 65.7351 81.8853 66.1351 81.9891 65.0955C82.1104 63.8815 82.8499 63.8694 83.6951 63.93C84.6848 64.001 85.0911 63.6752 85.2533 62.5999C85.4398 61.3639 87.0426 60.7664 87.0587 59.3353C87.059 59.3117 87.1421 59.2741 87.1897 59.2683C88.5807 59.0983 88.4391 58.0397 88.4454 57.083C88.4578 55.198 88.4604 53.3128 88.4518 51.4278C88.4495 50.9334 88.5721 50.2616 87.9396 50.1348C87.1947 49.9855 87.0042 49.3352 86.5724 49.0068C85.5239 48.2094 85.0265 46.4475 83.1783 46.8265C82.6041 46.9443 82.0504 46.6643 82.0523 45.9088C82.0546 44.9914 81.4798 44.8411 80.7312 44.8479C79.1519 44.8621 77.5722 44.8682 75.9931 44.8435C75.0558 44.8289 74.2751 44.865 74.2376 46.1431C74.2151 46.9093 73.4702 46.8431 72.9275 46.846C69.4631 46.8647 65.9986 46.8691 62.5341 46.8608C61.9788 46.8594 61.2335 46.8658 61.1653 46.1777C61.0243 44.756 60.0932 44.8221 59.0903 44.8414C57.8171 44.8659 56.5428 44.8647 55.2694 44.8455C54.318 44.8312 53.4176 44.7442 53.3935 46.1545C53.3807 46.9095 52.6382 46.8534 52.085 46.8601C51.2488 46.8702 50.7807 47.3106 50.1247 47.8296C49.2297 48.5377 48.9369 49.9212 47.5826 50.113C47.0107 50.194 47.0796 50.8014 47.0788 51.2545C47.075 53.4453 47.0761 55.6361 47.0842 57.8269C47.0859 58.2777 47.0042 58.8794 47.5616 58.9907C48.5722 59.1924 48.8855 59.7956 48.8767 60.7233C48.8729 61.1228 49.0933 61.3936 49.4994 61.4787C50.1951 61.6245 50.3652 62.1534 50.3511 62.744C50.3281 63.7124 50.846 63.9461 51.701 63.934C52.2745 63.9258 53.2035 63.6822 53.2977 64.414C53.5203 66.1419 54.7067 65.7712 55.7801 65.8373C56.6054 65.8882 57.6963 65.4507 58.1539 66.3916C58.6085 67.3262 59.2761 67.2681 60.0355 67.268C65.0795 67.2671 70.1234 67.2681 75.1673 67.265C76.0643 67.2645 77.0211 67.454 77.3543 66.1876C77.4639 65.771 78.0417 65.8472 78.719 65.814ZM96.4197 59.3255C98.867 59.3237 101.314 59.3233 103.762 59.3189C104.26 59.318 104.686 59.2006 104.728 58.5912C104.767 58.0304 104.507 57.704 103.939 57.7033C100.829 57.6997 97.7189 57.7037 94.6091 57.7174C94.1192 57.7196 93.8782 58.0095 93.8774 58.5037C93.8767 58.9933 94.1036 59.2787 94.5986 59.3008C95.1076 59.3236 95.6178 59.3184 96.4197 59.3255ZM66.9627 82.5182C66.9669 83.6889 66.9668 84.8596 66.9776 86.0303C66.9811 86.4159 67.0993 86.7498 67.5509 86.7939C68.0578 86.8433 68.34 86.5486 68.35 86.0836C68.4135 83.1346 68.4658 80.1851 68.4858 77.2356C68.4891 76.7566 68.2426 76.3315 67.6467 76.3499C66.9988 76.3698 66.9679 76.8497 66.9665 77.3265C66.9618 78.9554 66.9636 80.5843 66.9627 82.5182ZM74.9981 85.9513C75.0033 83.7199 75.0135 81.4886 75.0095 79.2573C75.0087 78.8106 75.066 78.2749 74.4138 78.2165C73.7794 78.1596 73.6573 78.6247 73.6559 79.1132C73.6498 81.395 73.6551 83.6769 73.6687 85.9587C73.6708 86.3234 73.755 86.6878 74.2034 86.7597C74.6315 86.8284 74.8614 86.5859 74.9981 85.9513ZM61.8569 84.3093C61.8565 82.6352 61.8623 80.9611 61.852 79.287C61.8489 78.7818 61.8894 78.1808 61.1302 78.2144C60.4837 78.2431 60.5111 78.7907 60.507 79.2397C60.4907 81.015 60.4297 82.794 60.5221 84.5645C60.5612 85.3156 59.9496 86.6802 61.1474 86.6998C62.3716 86.72 61.6509 85.3408 61.8569 84.3093Z" fill="black"/>
<path d="M77.2212 50.479C77.8332 49.4798 78.7276 49.9514 79.4849 49.8442C80.4568 49.7065 80.8997 50.1827 80.8959 51.137C80.8955 51.2288 80.9557 51.3902 81.0137 51.4031C83.4212 51.9395 82.2335 53.8691 82.4702 55.224C82.5821 55.8648 82.4933 56.5421 82.4819 57.2026C82.4701 57.8848 82.4511 58.5688 81.5077 58.6225C81.245 58.6375 80.9195 58.7347 80.8976 58.9926C80.7332 60.9224 79.2808 60.2026 78.2505 60.2735C77.7309 60.3092 77.2399 60.1196 77.1677 59.4501C77.147 59.2584 77.0935 58.9854 76.9602 58.9031C74.0963 57.1345 76.2797 54.4228 75.7169 52.228C75.6348 51.9077 76.0035 51.7177 76.3236 51.6692C76.943 51.5754 77.1686 51.1772 77.2212 50.479Z" fill="black"/>
<path d="M55.854 50.479C56.466 49.4798 57.3604 49.9514 58.1177 49.8442C59.0897 49.7065 59.5326 50.1827 59.5287 51.137C59.5283 51.2288 59.5885 51.3902 59.6465 51.4031C62.0541 51.9395 60.8663 53.8691 61.103 55.224C61.2149 55.8648 61.1261 56.5421 61.1147 57.2026C61.1029 57.8848 61.084 58.5688 60.1406 58.6225C59.8778 58.6375 59.5524 58.7347 59.5304 58.9926C59.366 60.9224 57.9136 60.2026 56.8833 60.2735C56.3637 60.3092 55.8727 60.1196 55.8005 59.4501C55.7799 59.2584 55.7263 58.9854 55.593 58.9031C52.7291 57.1345 54.9125 54.4228 54.3497 52.228C54.2676 51.9077 54.6364 51.7177 54.9564 51.6692C55.5758 51.5754 55.8014 51.1772 55.854 50.479Z" fill="black"/>
<path d="M70.2694 62.1115C71.0318 62.0942 71.5017 62.2605 71.5237 63.0203C71.5408 63.611 71.3578 64.0003 70.722 64.1062C70.5353 64.1373 70.2493 64.2422 70.2077 64.3754C69.4747 66.7225 67.5512 65.585 66.2442 65.491C65.4646 65.4349 64.6956 64.2386 64.077 63.4354C63.8373 63.124 63.834 62.3801 64.4962 62.1702C64.9777 62.0175 65.4699 61.9751 65.8471 62.5148C67.0527 64.2395 68.6905 64.1471 69.7461 62.3318C69.8095 62.2228 70.0039 62.1899 70.2694 62.1115Z" fill="black"/>
<path d="M66.6519 58.503C67.2903 58.4384 67.7959 58.4261 68.3012 58.4059C69.0986 58.3741 69.3827 58.8194 69.3612 59.5438C69.3408 60.2344 69.5231 61.0634 68.4876 61.1829C67.7941 61.263 66.9274 61.5177 66.4628 60.9341C65.9111 60.2411 65.981 59.3362 66.6519 58.503Z" fill="black"/>
</svg>
