<svg width="130" height="124" viewBox="0 0 130 124" fill="none" xmlns="http://www.w3.org/2000/svg">
<rect x="2.03971" y="2.03824" width="125.775" height="119.322" fill="#8AFF41" stroke="#7C7C7C" stroke-width="4.07683"/>
<path d="M35.3549 17.9932C36.9236 17.7494 36.4683 16.6204 36.4961 15.7971C36.5788 13.3545 36.5482 13.3391 38.9521 13.3279C42.3112 13.3122 45.6714 13.3646 49.0293 13.2979C50.459 13.2694 51.2814 13.6456 51.0699 15.2403C50.8865 16.6233 51.5604 17.1228 52.8766 17.0195C53.544 16.9671 54.2195 17.0166 54.8913 17.0195C57.6259 17.0314 57.6571 17.0236 58.3242 19.7063C58.5515 20.6206 59.1786 20.6731 59.8541 20.6116C61.6055 20.4522 62.694 20.8571 62.4512 22.97C62.2579 24.6526 63.6069 24.3641 64.5953 24.3507C65.6218 24.3367 67.0715 24.7283 66.8959 22.9237C66.7058 20.9688 67.5986 20.4192 69.3464 20.6392C70.6093 20.7983 71.1638 20.1924 71.0643 18.9452C70.9384 17.3678 71.8081 16.9219 73.2099 17.0073C74.0007 17.0556 74.8045 16.9396 75.5898 17.0202C77.4122 17.2075 78.5983 16.8021 78.3181 14.6027C78.1932 13.6217 78.9081 13.3511 79.725 13.349C83.6336 13.3391 87.5422 13.3452 91.4508 13.3447C92.7636 13.3445 92.9117 14.2234 92.8212 15.2198C92.6663 16.927 92.7967 18.272 95.1189 18.0699C96.2917 17.9679 96.1582 19.0441 96.1445 19.8125C96.1216 21.0947 96.0506 22.3005 97.9157 22.2827C98.7627 22.2745 98.94 23.0436 98.9421 23.7571C98.954 27.7879 98.9542 31.8188 98.9524 35.8496C98.952 36.7755 98.5987 37.3855 97.5487 37.3313C96.3707 37.2705 96.1282 37.975 96.1488 38.9736C96.1803 40.4998 96.1949 42.0289 96.1366 43.5536C96.0931 44.6923 96.4734 45.3571 97.6909 45.2061C100.101 44.9073 102.368 45.7089 104.698 46.0375C105.72 46.1816 106.067 46.7614 105.963 47.6734C105.779 49.2911 106.613 49.6913 108.029 49.5603C108.755 49.4932 109.494 49.5513 110.226 49.5613C110.886 49.5704 111.447 49.7138 111.532 50.5208C111.572 50.9034 111.725 51.2949 112.12 51.3672C113.481 51.6162 113.453 52.6283 113.357 53.6161C113.214 55.0782 113.865 55.5311 115.265 55.5326C117.752 55.5351 117.756 55.6008 117.762 58.1137C117.768 60.9232 117.713 63.7342 117.791 66.5417C117.829 67.9387 117.388 68.5082 115.92 68.4913C113.476 68.4631 113.463 68.5423 113.38 70.9804C113.354 71.741 113.371 72.4774 112.403 72.6773C112.285 72.7016 112.099 72.7403 112.074 72.8158C111.21 75.3689 109.056 74.6028 107.258 74.656C106.13 74.6894 105.932 75.3404 106.002 76.2237C106.106 77.5471 105.46 77.7661 104.235 78.1097C101.893 78.7672 99.5643 78.6658 97.2169 78.7448C96.2949 78.7758 96.1416 79.3669 96.1441 80.1125C96.1492 81.5783 96.1792 83.0454 96.1313 84.5097C96.0868 85.8689 95.9983 87.1322 98.002 86.9892C98.7912 86.9329 98.9224 87.6924 98.9249 88.3192C98.9408 92.3499 98.9411 96.3807 98.9293 100.411C98.9269 101.222 98.6663 101.886 97.6726 101.829C96.2624 101.749 96.0469 102.619 96.1559 103.722C96.3152 105.335 96.0715 106.485 93.9865 106.266C92.6582 106.127 92.8627 107.249 92.8396 108.076C92.7696 110.589 92.7752 110.594 90.3094 110.598C86.9502 110.602 83.5904 110.561 80.232 110.616C78.895 110.638 78.0811 110.322 78.2861 108.785C78.4859 107.286 77.6978 106.862 76.3352 106.941C75.118 107.012 73.8922 106.922 72.6718 106.959C71.6171 106.992 70.9912 106.573 71.0784 105.482C71.202 103.935 70.4756 103.348 69.0247 103.508C67.2979 103.699 66.7119 102.882 66.9135 101.256C67.124 99.5579 65.9625 99.5702 64.7958 99.6242C63.6881 99.6755 62.2236 99.2919 62.4146 101.191C62.5939 102.974 61.8525 103.668 60.1296 103.514C58.8458 103.399 58.1601 103.929 58.2683 105.305C58.3693 106.588 57.6965 107.025 56.4774 106.963C55.2592 106.901 54.034 106.988 52.8139 106.948C51.614 106.908 50.9148 107.315 51.0771 108.632C51.2634 110.145 50.618 110.666 49.1009 110.629C45.4995 110.541 41.8944 110.572 38.2912 110.605C37.1132 110.616 36.377 110.306 36.5184 108.963C36.6984 107.254 36.5263 105.913 34.2155 106.129C33.1885 106.226 33.214 105.264 33.2144 104.525C33.215 103.114 33.4734 101.588 31.2173 101.729C30.5343 101.771 30.4192 101.041 30.4172 100.488C30.4024 96.4575 30.407 92.4268 30.4188 88.3961C30.4215 87.4811 30.7743 86.8605 31.8309 86.9216C32.8802 86.9822 33.2105 86.3926 33.1994 85.4376C33.1789 83.6667 33.1745 81.8949 33.2067 80.1243C33.2256 79.0813 32.7117 78.6505 31.742 78.7618C29.2885 79.0435 26.9513 78.3207 24.5641 78.013C23.6008 77.8888 23.2684 77.397 23.3692 76.5552C23.5619 74.945 22.7494 74.5141 21.3238 74.6396C20.6576 74.6982 19.9811 74.6409 19.3093 74.6343C18.585 74.6272 17.9676 74.4823 17.8412 73.6029C17.808 73.3714 17.7074 72.9804 17.5818 72.9564C15.5365 72.567 15.8415 70.9428 15.7324 69.5285C15.6424 68.3601 14.7611 68.4875 13.9682 68.4615C11.3171 68.3748 11.3918 68.3749 11.4865 65.7366C11.5807 63.1149 11.5739 60.4844 11.476 57.8628C11.4134 56.1861 11.8952 55.2643 13.7254 55.4944C15.18 55.6772 15.8789 55.082 15.8597 53.5642C15.8476 52.5984 16.67 52.0022 17.0873 51.2921C18.4039 49.0515 20.293 49.6322 22.0986 49.5441C23.2184 49.4894 23.3996 48.794 23.3328 47.9271C23.2259 46.54 23.8181 46.1301 25.204 45.8982C27.4169 45.5278 29.5943 45.0687 31.8556 45.1708C32.7381 45.2106 32.9675 44.5808 32.9961 43.8325C33.052 42.3694 33.127 40.9068 33.1613 39.4433C33.1899 38.2224 33.1416 37.0881 31.3644 37.2612C30.5645 37.3391 30.4077 36.6062 30.4069 35.9709C30.4015 31.8791 30.4112 27.7873 30.4347 23.6956C30.4388 22.9798 30.6467 22.2701 31.5196 22.28C33.0972 22.298 33.3398 21.3484 33.1986 20.1152C33.0233 18.5842 33.5279 17.7564 35.3549 17.9932ZM74.2845 77.5317C75.651 77.6173 75.902 76.7838 75.8696 75.661C75.8357 74.4901 76.1509 73.6106 77.6078 73.712C78.3818 73.7659 78.6738 73.2706 78.6751 72.5479C78.6769 71.5721 78.7032 70.5962 78.7012 69.6204C78.6998 68.9117 78.9801 68.3641 79.7216 68.3709C81.1042 68.3835 81.3173 67.5891 81.2503 66.4675C81.1914 65.4788 81.1644 64.5595 82.4757 64.1746C83.1847 63.9665 83.4319 60.1861 82.7593 60.0115C80.9552 59.5429 81.2526 58.2385 81.235 57.0122C81.2242 56.261 80.8379 55.8596 80.1481 55.792C78.9386 55.6734 78.685 54.9121 78.7151 53.879C78.7364 53.1481 78.6936 52.4155 78.6899 51.6837C78.6862 50.9563 78.3685 50.4805 77.6059 50.525C76.2018 50.6068 76.0319 49.7687 76.0561 48.6597C76.0717 47.9419 76.0718 46.7262 75.4244 46.7383C73.8104 46.7685 72.756 45.2666 71.2631 45.4013C66.01 45.8755 60.6809 44.3727 55.4394 46.3048C54.0063 46.833 53.4105 47.1468 53.4821 48.6114C53.5181 49.3478 53.6593 50.4836 52.5321 50.4442C50.6379 50.3779 50.4114 51.4229 50.5488 52.8683C50.7139 54.6064 50.5768 56.1102 48.2726 55.9184C48.2003 56.2416 48.1408 56.4144 48.1254 56.5911C48.0119 57.8932 48.5459 59.3727 46.6358 60.0336C45.8941 60.2902 46.155 63.9242 46.9138 64.1725C48.0977 64.5597 48.1639 65.364 48.0956 66.3149C48.0124 67.4732 48.1797 68.3498 49.6512 68.4091C50.4175 68.4401 50.5185 69.1679 50.5455 69.7956C50.5821 70.6484 50.5947 71.5029 50.5916 72.3566C50.5884 73.2269 50.9042 73.7901 51.8679 73.7215C53.3687 73.6146 53.5276 74.5596 53.5317 75.7174C53.534 76.356 53.3543 77.5223 53.9931 77.4884C55.7154 77.397 56.8393 78.9338 58.4981 78.8338C59.5922 78.7678 60.7211 78.9745 61.7863 78.7865C65.8269 78.0734 70.1168 79.85 74.2845 77.5317ZM92.9526 91.2835C92.9455 90.4285 92.9486 89.5732 92.9275 88.7185C92.9148 88.2038 92.7735 87.6016 92.196 87.6166C90.0309 87.6728 90.3159 86.1563 90.3981 84.8537C90.4855 83.4698 89.9083 83.0311 88.5787 83.0716C86.1375 83.1461 83.6925 83.083 81.2493 83.1059C80.2582 83.1152 79.5138 83.2754 78.5927 84.0941C77.6188 84.9596 76.9525 85.5793 76.8895 86.8817C76.861 87.4722 76.2316 87.4817 75.7342 87.538C73.098 87.8365 73.0641 87.8415 73.0319 90.5809C73.0187 91.7013 72.8061 92.5519 71.4862 92.555C69.9747 92.5585 70.0126 93.6273 70.1587 94.5958C70.3212 95.6728 69.2829 97.3894 71.5012 97.5289C72.2357 97.5751 72.7373 97.9144 72.6278 98.6481C72.29 100.913 73.6705 100.996 75.2918 100.871C75.8382 100.828 76.3946 100.908 76.9398 100.858C78.4257 100.723 79.1381 101.31 78.9251 102.854C78.7267 104.291 79.5115 104.625 80.7727 104.596C83.1538 104.542 85.5385 104.521 87.9184 104.594C89.2856 104.635 89.8336 104.101 89.6951 102.768C89.561 101.477 90.0716 100.786 91.4575 100.898C92.57 100.988 92.9635 100.395 92.9527 99.338C92.9264 96.7728 92.9491 94.2071 92.9526 91.2835ZM38.8494 86.6808C38.6493 86.8959 38.4552 87.2909 38.248 87.2979C36.4513 87.3586 36.3379 88.4668 36.3761 89.9047C36.4588 93.0143 36.4383 96.1282 36.3849 99.239C36.366 100.344 36.6972 100.995 37.8531 101.097C39.0676 101.205 39.7814 101.78 39.6683 103.101C39.57 104.249 40.1917 104.571 41.231 104.555C43.7321 104.517 46.2341 104.521 48.7355 104.537C49.5936 104.543 50.1982 104.263 50.2275 103.336C50.2949 101.199 51.5587 100.79 53.4187 100.838C56.3981 100.916 56.3983 100.839 56.8022 97.9763C56.8166 97.8745 56.9386 97.7878 57.0731 97.6124C59.7795 97.803 58.8254 95.7408 58.9629 94.3319C59.0647 93.2882 58.7872 92.5335 57.5227 92.5128C56.5907 92.4976 56.2903 91.891 56.3246 91.0312C56.3488 90.4221 56.2931 89.8093 56.3288 89.2014C56.3954 88.0666 55.97 87.4393 54.7528 87.5552C53.2352 87.6997 52.0228 87.494 52.2559 85.4957C52.28 85.2892 52.1467 84.9166 51.9967 84.8604C50.4793 84.2915 49.5359 82.5778 47.4604 83.0105C45.8233 83.3519 44.0579 83.0751 42.3495 83.0776C39.0739 83.0825 39.0739 83.0839 38.8494 86.6808ZM74.0061 36.3367C75.7547 36.154 77.0692 36.4552 76.7697 38.7003C76.7392 38.9296 76.9912 39.3771 77.1881 39.4277C78.7625 39.8321 79.9733 41.144 81.8675 40.872C83.8411 40.5887 85.8897 40.7345 87.8995 40.8251C89.4743 40.8962 90.3457 40.4894 90.173 38.7071C90.0571 37.5111 90.3226 36.4861 91.9267 36.6133C92.7405 36.6778 92.9452 36.1137 92.9453 35.4178C92.9456 31.7561 92.943 28.0943 92.958 24.4326C92.9617 23.5412 92.5996 22.9821 91.6732 23.0621C90.0889 23.199 89.6226 22.3957 89.7155 20.9772C89.7712 20.1254 89.6553 19.3766 88.4957 19.3855C85.7495 19.4066 83.0031 19.389 80.2569 19.3881C79.4915 19.3878 79.0365 19.6528 78.9093 20.5215C78.5029 23.2967 78.4718 23.2921 75.6938 23.2975C75.3886 23.2981 75.08 23.3289 74.7789 23.294C73.2597 23.1182 72.434 23.624 72.6401 25.3095C72.7126 25.9025 72.7343 26.7367 71.943 26.7846C69.2592 26.9472 70.2953 28.9318 70.1352 30.3142C70.0418 31.1202 70.4291 31.6315 71.2939 31.5629C72.7645 31.4463 72.9505 32.307 73.0121 33.5027C73.0607 34.4474 72.4596 35.6229 74.0061 36.3367ZM36.3991 31.8711C36.3995 33.0305 36.4003 34.1899 36.4001 35.3493C36.4 35.9293 36.452 36.5657 37.2092 36.5149C39.1313 36.3861 39.0646 37.6732 38.9578 38.9256C38.8353 40.3622 39.4087 40.8869 40.8452 40.8319C43.0997 40.7455 45.36 40.8135 47.6177 40.8044C50.6917 40.7921 51.6643 40.1285 52.5714 37.2776C52.812 36.5215 53.2904 36.2913 53.9312 36.379C55.9281 36.6524 56.558 35.7277 56.3436 33.8669C56.1925 32.5557 56.3147 31.3625 58.1567 31.5223C58.4631 31.5489 58.7624 31.3384 58.8319 31.006C59.0586 29.9202 59.015 28.8182 58.8793 27.7308C58.7796 26.9315 58.0192 26.9844 57.4561 26.8288C56.6713 26.6119 56.6009 25.9716 56.6882 25.3712C56.9523 23.5533 55.9948 23.1355 54.4498 23.2574C53.8436 23.3052 53.2262 23.2156 52.6206 23.2668C50.9978 23.4039 49.9962 22.9354 50.2105 21.0583C50.3544 19.797 49.7336 19.3331 48.4811 19.3673C46.2252 19.4291 43.9635 19.441 41.7092 19.3493C40.2994 19.2919 39.458 19.6006 39.6211 21.2238C39.7361 22.3685 39.1547 22.9292 38.0032 22.8957C36.7245 22.8584 36.3445 23.526 36.3806 24.7349C36.4479 26.9907 36.3995 29.25 36.3991 31.8711ZM105.122 70.6862C105.001 69.2743 105.47 68.4227 107.066 68.6177C108.193 68.7554 108.815 68.339 108.75 67.1088C108.721 66.5562 109.028 66.0697 109.594 66.1216C111.896 66.3329 111.748 64.8258 111.692 63.3025C111.647 62.0836 111.65 60.8604 111.697 59.6416C111.741 58.5115 111.281 57.8954 110.128 57.8843C109.295 57.8762 108.673 57.6619 108.725 56.6567C108.78 55.5994 108.176 55.2183 107.236 55.3101C105.653 55.4647 104.956 54.8065 105.124 53.2119C105.248 52.0424 104.71 51.5694 103.523 51.6024C101.511 51.6583 99.4938 51.5609 97.482 51.6249C96.329 51.6617 95.4694 51.4311 95.3729 50.3364C92.4455 50.0086 92.6182 51.8792 92.6955 53.7226C92.7363 54.6967 92.7091 55.6758 92.6645 56.6504C92.6384 57.2194 92.4635 57.8623 91.7652 57.8063C89.774 57.6467 89.8411 58.9163 89.886 60.2807C89.9341 61.7439 89.9183 63.21 89.8943 64.6743C89.8798 65.5552 90.1802 66.1055 91.1437 66.0557C92.3972 65.9909 92.6989 66.7499 92.7038 67.7959C92.7115 69.4434 92.7193 71.091 92.7411 72.7383C92.7497 73.3941 92.9088 74.0041 93.7139 74.0241C94.3852 74.0407 95.2847 74.4373 95.5068 73.3437C95.7123 72.3314 96.4657 72.3688 97.1948 72.3614C99.2696 72.3404 101.345 72.3388 103.42 72.3432C104.351 72.3451 105.173 72.2408 105.122 70.6862ZM22.2098 68.6259C23.6286 68.476 24.283 69.1368 24.1578 70.5333C24.0221 72.0477 24.8172 72.4084 26.1533 72.3675C28.1655 72.3058 30.1813 72.3434 32.1954 72.3625C32.8571 72.3688 33.5953 72.3117 33.8029 73.206C34.1197 74.5704 35.2022 73.8715 35.9114 73.8932C36.7929 73.9202 36.6158 73.0521 36.6322 72.4851C36.6764 70.9602 36.6703 69.4338 36.6781 67.9079C36.6837 66.8163 36.9302 65.9691 38.2999 66.023C39.173 66.0573 39.4403 65.4826 39.4381 64.7051C39.4328 62.874 39.4349 61.043 39.4367 59.2119C39.4375 58.436 39.1529 57.8405 38.2926 57.8909C36.7576 57.9808 36.6409 57.0196 36.6703 55.8835C36.6892 55.1515 36.6064 54.41 36.6944 53.688C36.9254 51.7919 36.8329 50.1736 34.2942 50.2155C34.1825 50.2173 34.0708 50.227 33.8356 50.2397C34.1503 51.5539 33.3049 51.6255 32.3381 51.6169C30.263 51.5985 28.1848 51.6782 26.1133 51.5899C24.6967 51.5295 24.0625 52.0247 24.1812 53.4693C24.2866 54.7511 23.7444 55.4119 22.3623 55.2954C21.5617 55.2279 20.6493 55.2426 20.6579 56.4032C20.6664 57.5545 20.0788 57.9068 19.0544 57.8347C17.8783 57.752 17.616 58.4395 17.6352 59.4438C17.6679 61.1523 17.6745 62.8621 17.6465 64.5706C17.6308 65.526 17.9309 66.1244 18.9905 66.0555C20.1243 65.9817 20.7055 66.4305 20.6603 67.6343C20.6296 68.4509 21.2207 68.6228 22.2098 68.6259ZM66.282 35.5732C66.1955 34.9302 66.434 34.2315 65.9756 33.658C63.2583 33.4161 63.1783 33.4062 62.8572 35.9943C62.7055 37.2169 62.0181 37.2919 61.1152 37.2972C60.4661 37.301 59.8836 37.3904 59.8649 38.2489C59.8437 39.2218 60.4934 39.2847 61.2104 39.2843C63.5182 39.283 65.826 39.2911 68.1338 39.2814C68.762 39.2788 69.4056 39.2196 69.4541 38.3794C69.5088 37.4304 68.846 37.2937 68.1238 37.3148C67.1019 37.3446 66.2838 37.1568 66.282 35.5732ZM62.89 87.5455C62.9299 88.0921 63.0133 88.6398 63.0006 89.1853C62.9739 90.3409 63.6074 90.6176 64.6293 90.6118C65.6188 90.6061 66.3683 90.4233 66.2521 89.2245C66.0905 87.558 66.6531 86.6659 68.4876 86.861C69.1208 86.9283 69.4873 86.4997 69.4766 85.8203C69.465 85.0877 68.9857 84.8873 68.3816 84.8831C65.8795 84.8658 63.3773 84.8561 60.8752 84.8673C60.24 84.8702 59.849 85.1891 59.8603 85.8893C59.8717 86.5971 60.2826 86.8257 60.9173 86.8719C61.5566 86.9184 62.2816 86.6079 62.89 87.5455ZM87.3435 74.2985C86.1455 74.1576 86.4436 73.2186 86.3681 72.4755C86.2377 71.1938 86.6768 69.844 86.0216 68.6183C85.1122 68.7034 85.1789 69.3255 85.1644 69.8541C85.1392 70.7675 85.1292 71.6835 85.1677 72.596C85.2116 73.6403 85.0248 74.4202 83.7178 74.3462C82.6963 74.2885 82.5644 74.9633 82.5544 75.7892C82.543 76.7425 83.0036 77.0973 83.8968 77.0853C85.1154 77.0689 86.3344 77.0848 87.5532 77.0783C88.2715 77.0744 88.8971 76.969 88.9341 76.0246C88.9708 75.0867 88.9182 74.2663 87.3435 74.2985ZM85.8887 55.2976C86.8332 54.252 86.2641 52.9886 86.3315 51.8343C86.3962 50.7274 86.5335 49.9083 87.8896 49.9176C88.9659 49.9251 88.9202 49.1319 88.9302 48.3753C88.9407 47.5687 88.6088 47.0868 87.7684 47.0817C86.4318 47.0735 85.0948 47.0845 83.7582 47.1025C82.9336 47.1136 82.5633 47.557 82.5678 48.3756C82.572 49.1461 82.5793 49.9276 83.6282 49.9169C84.9974 49.903 85.1189 50.7207 85.1815 51.824C85.2471 52.9805 84.686 54.2445 85.8887 55.2976ZM45.4605 47.0804C44.1182 47.0926 42.7755 47.0887 41.4338 47.1243C40.798 47.1411 40.4003 47.4911 40.3926 48.1558C40.3857 48.7452 40.1783 49.6738 40.8785 49.751C43.4847 50.0386 42.4381 52.0177 42.6937 53.3811C42.8239 54.0757 42.3415 54.9891 43.5915 55.4205C44.1407 54.1948 43.8721 52.9708 43.8874 51.8002C43.9022 50.6716 44.1324 49.8636 45.4924 49.9183C46.1682 49.9455 46.7222 49.7219 46.7509 48.9224C46.779 48.1422 46.9599 47.2541 45.4605 47.0804ZM45.1934 74.2911C43.8585 74.2166 43.9845 73.2301 43.9033 72.3107C43.7934 71.0656 44.3686 69.7054 43.4465 68.5492C42.4754 68.8348 42.733 69.4896 42.7522 70.0714C42.7843 71.0402 42.8131 72.0107 42.7921 72.9793C42.7761 73.711 42.5132 74.3128 41.6353 74.3033C40.5196 74.2912 40.3979 74.9765 40.4068 75.8717C40.4182 77.028 41.171 77.0875 42.0115 77.0841C43.1038 77.0798 44.1962 77.0797 45.2885 77.0676C45.9911 77.0599 46.6674 76.9792 46.7342 76.0656C46.801 75.1522 46.7361 74.3096 45.1934 74.2911Z" fill="black"/>
<path d="M68.4407 52.1364C70.0279 52.2773 69.7156 53.373 69.7383 54.2296C69.8078 56.8431 69.7942 56.9362 72.2849 56.8556C73.9856 56.8005 74.573 57.4357 74.4906 59.0936C74.3907 61.1025 74.409 63.1227 74.4923 65.1332C74.553 66.5961 74.0513 67.224 72.5207 67.2381C69.8415 67.2628 69.7886 67.3324 69.7625 70.0533C69.7506 71.291 69.3595 71.8232 68.0696 71.7851C65.8136 71.7185 63.553 71.7209 61.2967 71.7833C60.0076 71.819 59.6126 71.2676 59.5919 70.0408C59.5475 67.4062 59.5002 67.3475 56.825 67.2024C55.3637 67.1232 54.7875 66.5694 54.8665 65.0698C54.9754 63.0005 54.9627 60.9186 54.8762 58.8474C54.8125 57.3205 55.4228 56.8276 56.9123 56.851C59.5622 56.8925 59.6493 56.8183 59.577 54.1937C59.533 52.595 60.0632 52.0066 61.6769 52.0897C63.8682 52.2025 66.0694 52.1241 68.4407 52.1364Z" fill="black"/>
</svg>
