<svg width="130" height="124" viewBox="0 0 130 124" fill="none" xmlns="http://www.w3.org/2000/svg">
<rect x="2.03971" y="2.03824" width="125.775" height="119.322" fill="#8AFF41" stroke="#7C7C7C" stroke-width="4.07683"/>
<path d="M65.5499 83.2705C64.4762 83.2764 63.5212 83.1468 63.5004 84.5602C63.479 86.0169 64.4893 85.8425 65.3761 85.8446C71.2819 85.859 77.1883 85.8997 83.0933 85.8301C84.7016 85.8111 85.3444 86.3116 85.2832 87.9648C85.1865 90.5734 85.0309 93.2145 85.3293 95.7922C85.5766 97.9288 84.5813 99.206 83.088 100.13C82.1489 100.711 81.36 101.588 80.9022 102.289C80.1016 103.515 79.2079 103.326 78.1833 103.386C77.1823 103.445 75.9876 102.99 75.5569 104.53C75.4057 105.071 74.7015 104.989 74.1954 104.99C67.892 104.997 61.5887 104.999 55.2853 104.998C54.8322 104.998 54.1535 105.076 54.0254 104.682C53.4766 102.994 52.077 103.207 50.9621 103.439C49.1921 103.807 48.5647 102.26 47.7331 101.506C46.7021 100.572 45.7236 99.5572 44.5848 98.7168C44.1076 98.3647 44.2232 97.7909 44.2234 97.2933C44.2258 88.8888 44.2376 80.4844 44.2457 72.0799C44.2464 71.3287 44.5237 70.8641 45.1035 70.2547C46.4029 68.8886 48.1212 67.9193 49.063 66.2129C49.1171 66.1149 49.2012 65.9344 49.2419 65.9424C51.338 66.3548 52.2845 63.975 54.4019 64.0145C62.633 64.168 70.8689 64.0757 79.103 64.0521C80.1747 64.049 81.4448 64.4411 81.9766 62.9362C82.0282 62.7902 82.3578 62.671 82.5637 62.6621C84.9677 62.5579 85.941 61.058 86.2769 58.9133C86.3027 58.748 86.3357 58.4934 86.4413 58.4444C88.553 57.4663 87.7543 55.562 87.7958 53.9961C87.8831 50.7048 87.8826 47.408 87.7986 44.1166C87.7619 42.6765 88.3104 42.2065 89.6822 42.2627C92.5164 42.3789 95.3591 42.1301 98.1916 42.4405C98.8259 42.51 99.4496 42.5195 99.6621 43.314C99.7124 43.502 99.9135 43.7242 100.096 43.7911C103.85 45.1649 105.072 48.201 105.423 51.8262C105.455 52.1545 105.483 52.6855 105.667 52.7649C107.252 53.4488 106.77 54.8316 106.78 55.9943C106.818 60.8209 106.802 65.6479 106.8 70.4747C106.8 71.3045 106.994 72.2307 105.85 72.5602C105.72 72.5978 105.533 72.8269 105.551 72.9391C105.873 74.9855 104.61 76.5762 104.051 78.3708C103.775 79.2599 103.752 80.1891 102.493 80.2093C101.516 80.225 101.299 81.2234 101.154 81.7644C100.756 83.2545 99.791 83.2841 98.586 83.2817C87.6262 83.2595 76.6664 83.27 65.5499 83.2705ZM76.4346 98.3508C78.1599 98.5833 78.7117 97.8242 78.6489 96.1186C78.4935 91.9003 79.1938 92.5231 75.062 92.4665C72.7107 92.4344 72.6884 92.4629 72.7101 94.8089C72.7438 98.4469 72.1492 98.3778 76.4346 98.3508Z" fill="black"/>
<path d="M73.2138 20.7059C74.2246 20.7217 75.0569 20.6717 75.5878 21.6053C75.9878 22.3087 76.8377 22.2394 77.4492 22.1031C79.5878 21.6262 80.8113 23.06 81.8241 24.3886C82.6015 25.4083 83.5206 26.1542 84.5059 26.833C85.1583 27.2824 85.216 27.8147 85.2173 28.4217C85.2355 36.8805 85.2159 45.3394 85.2642 53.798C85.2735 55.4334 83.6583 55.7034 83.0184 56.8116C82.3901 57.9 80.9027 58.3361 80.4076 59.6444C80.388 59.6962 80.3393 59.7851 80.3173 59.7813C78.3616 59.4397 77.2891 61.5128 75.3846 61.4988C66.9262 61.4363 58.4671 61.4688 50.0083 61.4751C49.0762 61.4757 48.0159 61.2184 47.6742 62.5692C47.6248 62.7642 47.1912 63.0436 47.0118 62.996C45.3626 62.5582 44.767 64.1371 43.6554 64.7077C43.212 64.9353 43.1534 65.4502 43.1241 65.9032C43.0633 66.8429 43.22 67.7901 41.9723 68.2451C41.4602 68.4318 41.6974 69.2809 41.6955 69.8332C41.6824 73.6936 41.6444 77.5548 41.7133 81.414C41.7381 82.8013 41.2919 83.333 39.8671 83.2951C36.7468 83.212 33.6228 83.2416 30.5007 83.2666C29.5629 83.274 28.954 83.0474 28.5 82.0992C28.0912 81.2451 27.6609 80.1877 26.3956 80.136C26.2538 80.1302 25.9937 79.9535 25.9988 79.8687C26.1221 77.8181 23.9196 76.6098 24.0966 74.5238C24.1805 73.5358 24.309 72.4821 22.9985 71.9759C22.4174 71.7515 22.523 70.9983 22.5233 70.4387C22.5254 65.1024 22.5221 59.7659 22.5619 54.4297C22.5697 53.3906 22.4368 52.2128 23.7559 51.7075C23.8457 51.6731 23.9675 51.5255 23.955 51.4504C23.656 49.6525 25.1684 48.5772 25.7079 47.1116C26.2575 45.6183 27.1271 44.2629 29.016 44.1742C29.4166 44.1555 29.9651 44.1716 30.0514 43.7573C30.376 42.1994 31.5583 42.5025 32.5912 42.5016C43.0938 42.4929 53.5965 42.5 64.099 42.4815C64.8314 42.4802 65.7542 42.7762 66.0229 41.613C66.3467 40.2113 65.9553 39.6935 64.3778 39.6889C58.3602 39.6715 52.3418 39.6301 46.3252 39.7101C44.6601 39.7323 44.1427 39.1501 44.2112 37.5415C44.3172 35.048 44.4958 32.5124 44.1655 30.0591C43.8659 27.8337 45.1882 26.7539 46.4328 25.518C47.3103 24.6466 48.3484 23.9261 49.04 22.8819C49.4877 22.206 50.1356 22.4244 50.7235 22.3737C51.973 22.2658 53.3363 22.63 54.099 21.0663C54.3805 20.4893 55.2418 20.7168 55.8527 20.7156C61.5864 20.7043 67.3202 20.7069 73.2138 20.7059ZM50.8746 30.4865C51.1035 31.3613 50.2715 32.6431 51.8097 33.0162C55.7347 33.9683 57.3447 32.4782 56.8119 28.502C56.6569 27.3445 55.9029 27.2347 55.1228 27.4045C53.7164 27.7105 51.9514 26.4194 50.9107 28.3105C50.8134 28.4872 50.8777 28.7556 50.8754 28.9815C50.8715 29.377 50.8741 29.7726 50.8746 30.4865Z" fill="black"/>
</svg>
