<svg width="171" height="124" viewBox="0 0 171 124" fill="none" xmlns="http://www.w3.org/2000/svg">
<rect x="2.03971" y="2.03824" width="166.342" height="119.322" fill="#8AFF41" stroke="#7C7C7C" stroke-width="4.07683"/>
<path d="M126.702 55.8551C127.244 55.9122 127.609 55.8757 127.886 56.0144C129.111 56.6268 131.562 55.7484 131.488 57.6404C131.414 59.5455 131.139 62.014 128.78 63.0036C127.609 63.495 127.833 64.4285 127.852 65.2755C127.952 69.5321 128.188 73.7873 128.196 78.0433C128.2 80.2413 128.046 82.4858 127.59 84.6301C126.013 92.0481 119.504 96.2227 111.059 94.8597C103.46 93.633 104.036 94.4603 104.772 86.0637C104.826 85.4438 106.54 86.1892 107.408 86.5008C109.853 87.3794 112.357 87.6699 114.906 87.3323C118.034 86.9183 119.454 85.1427 119.307 82.0355C118.887 81.6506 118.384 81.7472 117.914 81.8642C108.919 84.1028 101.763 76.8681 103.736 66.8651C104.986 60.5298 109.232 56.8833 115.967 55.8483C119.484 55.3078 122.978 55.308 126.702 55.8551ZM113.609 73.7645C113.999 74.0569 114.356 74.4183 114.785 74.6307C117.767 76.1044 119.656 74.9419 119.663 71.6409C119.668 69.4389 119.675 67.2364 119.635 65.0349C119.594 62.8061 118.89 62.2777 116.768 62.7978C112.289 63.8953 110.687 68.9195 113.609 73.7645Z" fill="black"/>
<path d="M36.0168 43.7432C38.0089 43.6638 38.6988 44.4862 38.6926 46.2668C38.6541 57.3329 38.6623 68.3994 38.7102 79.4655C38.7172 81.0889 38.0864 81.9355 36.4947 82.0671C31.6836 82.4646 26.8812 83.0525 22.0896 81.7626C17.0054 80.3939 13.7242 76.3879 13.3649 71.1371C12.9343 64.8464 14.4576 59.5762 20.551 56.5333C22.823 55.3987 25.2771 55.1706 27.7473 55.3958C29.6363 55.568 30.2212 54.8132 30.1299 53.0202C30.0215 50.8945 30.2293 48.7499 30.0736 46.6301C29.917 44.4968 30.6992 43.5739 32.8422 43.7402C33.8196 43.816 34.8085 43.7441 36.0168 43.7432ZM27.8899 62.6504C23.798 62.8237 21.8253 64.8543 21.7652 68.9549C21.709 72.796 24.0831 75.3099 27.8661 75.5092C29.3875 75.5893 30.1548 75.1057 30.1147 73.4561C30.0474 70.6834 30.0447 67.9064 30.1204 65.134C30.1585 63.7369 29.5932 62.9856 27.8899 62.6504Z" fill="black"/>
<path d="M132.129 63.596C135.975 52.729 150.9 53.6436 155.128 59.7884C158.708 64.992 158.775 70.5565 156.49 76.1508C154.438 81.1787 150.1 82.8318 144.985 82.9976C134.62 83.3336 128.937 74.8994 132.129 63.596ZM149.206 67.7692C149.113 67.2058 149.08 66.6238 148.915 66.0823C148.248 63.8977 146.86 62.5536 144.469 62.5772C142.32 62.5984 140.61 64.1954 140.171 66.5908C139.859 68.2947 139.856 70.0295 140.192 71.7274C140.661 74.1006 142.423 75.6308 144.57 75.664C146.864 75.6995 148.655 74.1702 149.09 71.6275C149.282 70.5089 149.194 69.3422 149.206 67.7692Z" fill="black"/>
<path d="M77.8935 64.8593C77.8929 64.3682 77.8924 64.1222 77.8923 63.8763C77.8877 57.2421 77.8766 57.1774 84.3939 56.0516C88.362 55.3662 92.363 54.9722 96.2464 56.632C99.5202 58.0312 101.115 60.4262 101.319 64.0422C101.619 69.372 101.45 74.6859 101.351 80.0094C101.32 81.6874 100.765 82.3109 99.0562 82.278C92.0403 82.1427 93.1927 83.02 93.0971 76.4795C93.0505 73.283 93.1201 70.0847 93.0782 66.888C93.0367 63.7219 91.8885 62.7009 88.9064 62.8641C87.211 62.9569 86.4141 63.5781 86.4501 65.4111C86.5417 70.0822 86.4025 74.7583 86.5226 79.4281C86.5761 81.5089 86.0076 82.3739 83.7667 82.2979C76.9577 82.0667 77.9739 83.2031 77.9029 76.4178C77.8635 72.6471 77.8944 68.8757 77.8935 64.8593Z" fill="black"/>
<path d="M74.9586 64.5601C74.9759 69.7014 74.9467 74.6156 75 79.529C75.0198 81.354 74.3333 82.1538 72.4305 82.2685C68.1009 82.5295 63.7753 83.0685 59.458 82.2822C55.8958 81.6334 54.0153 79.6472 53.4014 76.1093C52.8214 72.7662 54.3797 69.3697 57.235 67.7392C59.4813 66.4566 61.934 65.9223 64.4691 65.5494C65.4593 65.4037 67.1207 65.5125 66.8637 63.7817C66.6399 62.2753 65.2722 61.9921 63.9871 62.1316C62.531 62.2896 61.1049 62.7065 59.652 62.9159C58.2825 63.1132 57.1184 64.1076 55.5371 63.9249C54.8818 62.2856 55.277 60.5732 55.262 58.9008C55.2532 57.9283 56.0107 57.4964 56.7931 57.1848C61.0787 55.4786 65.4732 54.7992 70.0014 56.0321C72.9525 56.8355 74.4863 58.825 74.7258 61.887C74.7897 62.703 74.8713 63.5175 74.9586 64.5601ZM65.136 71.4351C64.4406 71.6424 63.7085 71.7714 63.0583 72.0754C62.056 72.5439 61.2944 73.2634 61.4534 74.5201C61.6053 75.7202 62.5662 75.9834 63.5182 76.2682C64.4208 76.5382 65.2851 76.3461 66.1469 76.113C67.9995 75.612 67.3354 74.0805 67.417 72.887C67.5095 71.5327 66.663 71.2532 65.136 71.4351Z" fill="black"/>
<path d="M45.8269 91.2706C44.0129 92.9533 42.2241 92.9393 40.3068 91.8339C38.778 90.9527 36.9547 90.5599 35.8046 89.2408C35.7458 88.6045 36.0291 88.271 36.3869 88.0925C41.388 85.597 42.3363 81.0347 42.4093 76.1078C42.4954 70.3005 42.4998 64.4902 42.4086 58.6833C42.3774 56.6946 43.01 55.9036 45.0638 55.9324C52.2494 56.0331 51.0701 55.4556 51.0437 61.7092C51.0147 68.571 51.5163 75.4505 50.5959 82.2954C50.1228 85.8141 48.9298 88.9482 45.8269 91.2706Z" fill="black"/>
<path d="M47.9262 43.9909C50.2759 43.7044 51.0223 44.575 51.0248 46.7406C51.0318 52.925 51.1165 52.8738 44.847 52.6899C43.0528 52.6373 42.2673 51.9796 42.4365 50.1989C42.4673 49.8747 42.4374 49.545 42.4411 49.2179C42.5081 43.181 41.8493 44.1006 47.9262 43.9909Z" fill="black"/>
</svg>
